
<svg width="10px" height="12px" viewBox="0 0 10 12" version="1.1" xmlns="http://www.w3.org/2000/svg" xmlns:xlink="http://www.w3.org/1999/xlink">
    <g id="Page-1" stroke="none" stroke-width="1" fill="none" fill-rule="evenodd">
        <g id="Desktop" transform="translate(-531.000000, -410.000000)" fill="#777777">
            <g id="Podcast" transform="translate(355.000000, 255.000000)">
                <g id="Listen" transform="translate(176.000000, 152.000000)">
                    <path d="M7.53790712,5.48921314 C6.50231707,5.48921314 6.04263015,6.12207372 5.35223679,6.12207372 C4.60431064,6.12207372 3.91391727,5.54674592 3.05092557,5.54674592 C1.84273718,5.54674592 0.00111287332,6.6968262 0.00111287332,9.3433341 C-0.0564199072,11.7597109 2.13040108,14.4643269 3.39612225,14.4643269 C4.1440484,14.4643269 4.31664674,14.0034893 5.35223679,14.0034893 C6.38782683,14.0034893 6.61795796,14.4643269 7.3658841,14.4643269 C8.22887581,14.4643269 8.86173639,13.5432271 9.37953142,12.7953009 C9.61023787,12.3925715 9.78226088,12.1630157 9.95485922,11.817819 C10.0699248,11.5876879 9.95485922,11.3575567 9.7247281,11.2424912 C8.22887581,10.494565 7.94121191,8.07818826 9.61023787,7.21519655 C9.89790177,7.04259821 9.95485922,6.6968262 9.7247281,6.52422786 C9.09186752,5.94890005 8.1707677,5.48921314 7.53790712,5.48921314 M7.36818541,3.00264636 C7.33366574,2.99689309 7.2933928,3.00034505 7.25024321,3.01472825 C6.67491541,3.12979381 6.04263015,3.47499049 5.63990069,3.87771995 C5.294704,4.22291664 5.00761543,4.79824444 5.00761543,5.31603947 C5.00761543,5.43110503 5.12153034,5.54674592 5.2365959,5.54674592 C5.86945648,5.48921314 6.50231707,5.14344113 6.90504653,4.74071166 C7.25024321,4.28044942 7.53790712,3.76322972 7.53790712,3.2454347 C7.53790712,3.11598594 7.4734704,3.01875554 7.36818541,3.00264636" id="icon-apple"></path>
                </g>
            </g>
        </g>
    </g>
</svg>