
<svg width="10px" height="10px" viewBox="0 0 10 10" version="1.1" xmlns="http://www.w3.org/2000/svg" xmlns:xlink="http://www.w3.org/1999/xlink">
    <g id="Page-1" stroke="none" stroke-width="1" fill="none" fill-rule="evenodd">
        <g id="Desktop" transform="translate(-685.000000, -411.000000)" fill="#777777">
            <g id="Podcast" transform="translate(355.000000, 255.000000)">
                <g id="Listen" transform="translate(176.000000, 152.000000)">
                    <g id="icon-rss" transform="translate(154.000000, 4.000000)">
                        <path d="M1.28971429,7.38639796 C0.578591837,7.38639796 2.04081633e-05,7.96496939 2.04081633e-05,8.67619388 C2.04081633e-05,9.38721429 0.578591837,9.96568367 1.28971429,9.96568367 C2.00083673,9.96568367 2.57940816,9.38721429 2.57940816,8.67619388 C2.57940816,7.96496939 2.00073469,7.38639796 1.28971429,7.38639796" id="Fill-1"></path>
                        <path d="M0.2145,3.7123771 C0.158887755,3.71111224 0.10572449,3.73121429 0.0658265306,3.76978571 C0.0260306122,3.8082551 0.00368367347,3.86121429 0.00368367347,3.91652041 L0.00368367347,5.57131633 C0.00368367347,5.68029592 0.0895,5.77009184 0.198479592,5.77519388 C2.37541837,5.87447959 4.09194898,7.5910102 4.19123469,9.76794898 C4.19623469,9.87682653 4.28603061,9.96264286 4.39511224,9.96264286 L6.0500102,9.96264286 C6.10531633,9.96264286 6.15837755,9.94019388 6.1967449,9.90070408 C6.2350102,9.8610102 6.25572449,9.80723469 6.25409184,9.75203061 C6.20133673,8.1655 5.55123469,6.67060204 4.42368367,5.54294898 C3.29592857,4.41529592 1.80113265,3.76529592 0.2145,3.7123771" id="Fill-3"></path>
                        <path d="M7.04619388,2.92022449 C5.21619388,1.09042857 2.78915306,0.0532857143 0.211806122,0.000224489796 C0.156704082,-0.00242857143 0.103846939,0.0200204082 0.0648673469,0.0584897959 C0.0256836735,0.0969591837 0.00354081633,0.149408163 0.00354081633,0.204204082 L0.00354081633,1.85808163 C0.00354081633,1.96879592 0.0918061224,2.05930612 0.202520408,2.06216327 C4.34547959,2.1662449 7.80037755,5.62114286 7.90415306,9.76359184 C7.90680612,9.87440816 7.99741837,9.96257143 8.10813265,9.96257143 L9.7620102,9.96257143 C9.81680612,9.96257143 9.86945918,9.94053061 9.90792857,9.9012449 C9.94619388,9.86206122 9.96731633,9.80910204 9.96614227,9.75420408 C9.91292857,7.1767551 8.87578571,4.74961224 7.04619388,2.92022449" id="Fill-5"></path>
                    </g>
                </g>
            </g>
        </g>
    </g>
</svg>